# xmcd
#
# Track frame offsets:
#	150
#	20545
#	34267
#	49780
#	70877
#	82687
#	110677
#	128917
#	146012
#	162000
#	174902
#	189352
#	205812
#	225540
#	240742
#
# Disc length: 3355 seconds
#
# Revision: 1
# Processed by: cddbd v1.5.1PL2 Copyright (c) Steve Scherf et al.
# Submitted via: audiograbber 1.83.01
#
DISCID=c10d190f
DTITLE=Billy Bacon and the Forbidden Pigs - Pig Latin
DYEAR=1900
DGENRE=Blues
TTITLE0=Medocino/Dynamite Woman
TTITLE1=Hasta Manana Iguana
TTITLE2=Tina Mas Fina
TTITLE3=No Mas Tequila
TTITLE4=Martha's Tacos
TTITLE5=Wasted Days And Wasted Nights/Volver Volver
TTITLE6=Ay Mi Yaquicita
TTITLE7=Bordertown
TTITLE8=Nogales
TTITLE9=Pushin The Trucks
TTITLE10=Una Mas Cerveza
TTITLE11=Morenita Mia
TTITLE12=Flying South
TTITLE13=Una Mas Cerveza
TTITLE14=Wooly Bully
EXTD=
EXTT0=
EXTT1=
EXTT2=
EXTT3=
EXTT4=
EXTT5=
EXTT6=
EXTT7=
EXTT8=
EXTT9=
EXTT10=
EXTT11=
EXTT12=
EXTT13=
EXTT14=
PLAYORDER=
